<svg id="Layer_1" data-name="Layer 1" xmlns="http://www.w3.org/2000/svg" xmlns:xlink="http://www.w3.org/1999/xlink" viewBox="0 0 24 24"><defs><style>.cls-1{fill:none;}.cls-2{clip-path:url(#clip-path);}.cls-3{fill:#fff;}</style><clipPath id="clip-path" transform="translate(0 0)"><rect class="cls-1" width="24" height="24"/></clipPath></defs><title>answer-white</title><g class="cls-2"><g id="answer"><g id="Group_40516" data-name="Group 40516"><path id="Path_108051" data-name="Path 108051" class="cls-3" d="M12,0a11.15,11.15,0,0,1,3.2.4,15,15,0,0,1,2.9,1.2,11.29,11.29,0,0,1,2.4,1.9,11.29,11.29,0,0,1,1.9,2.4,12.68,12.68,0,0,1,1.2,2.9A11.51,11.51,0,0,1,24,12a11.15,11.15,0,0,1-.4,3.2,15,15,0,0,1-1.2,2.9,11.29,11.29,0,0,1-1.9,2.4,11.29,11.29,0,0,1-2.4,1.9,12.68,12.68,0,0,1-2.9,1.2A11.51,11.51,0,0,1,12,24a11.15,11.15,0,0,1-3.2-.4,15,15,0,0,1-2.9-1.2,11.29,11.29,0,0,1-2.4-1.9,11.29,11.29,0,0,1-1.9-2.4A12.68,12.68,0,0,1,.4,15.2,11.51,11.51,0,0,1,0,12,11.15,11.15,0,0,1,.4,8.8,15,15,0,0,1,1.6,5.9,11.29,11.29,0,0,1,3.5,3.5,11.29,11.29,0,0,1,5.9,1.6,12.68,12.68,0,0,1,8.8.4,11.51,11.51,0,0,1,12,0Zm7.1,8L17.5,6.4,9.8,14.1,6.6,10.9,5,12.5l4.8,4.8Z" transform="translate(0 0)"/></g></g></g></svg>